<svg xmlns="http://www.w3.org/2000/svg" width="25" height="25" viewBox="0 0 25 25"><rect width="100%" height="100%" fill="#DDDDDD"/><path fill="#999999" d="M5.605 13.73h.93q.1 0 .16.06t.06.15v.37h-2.49v-.21q0-.06.03-.13t.09-.12l1.09-1.1q.14-.14.25-.27t.18-.25q.07-.13.11-.25.04-.13.04-.27 0-.13-.04-.23-.03-.1-.1-.17t-.17-.1q-.09-.04-.21-.04t-.21.04q-.09.03-.16.08-.08.06-.13.13-.05.08-.07.17-.05.12-.11.15-.07.04-.2.02l-.32-.06q.03-.26.14-.45.11-.2.27-.33t.37-.2.45-.07q.25 0 .46.08.21.07.35.21.15.13.23.32t.08.42q0 .2-.05.38-.06.17-.16.32t-.23.3l-.28.3-.81.83q.11-.04.23-.06t.22-.02m2.52-2.48-.13.76q.12-.03.23-.04t.21-.01q.29 0 .51.08.21.09.36.24t.22.35q.08.2.08.43 0 .29-.1.53t-.28.41-.43.26-.54.09q-.17 0-.32-.03-.15-.04-.29-.1-.13-.06-.24-.13-.12-.08-.21-.17l.19-.26q.06-.08.16-.08.06 0 .13.04.06.04.15.09.08.04.19.08.12.04.28.04.17 0 .3-.05.13-.06.21-.16.09-.1.13-.23.05-.14.05-.3 0-.29-.17-.46-.17-.16-.51-.16-.26 0-.53.09l-.38-.11.3-1.76h1.78v.27q0 .13-.08.21t-.28.08zm5.6 2.23-.33.32-.84-.84-.86.85-.33-.32.86-.86-.82-.82.33-.32.81.82.81-.81.33.32-.81.81zm3.01.25h.93q.1 0 .16.06t.06.15v.37h-2.48v-.21q0-.06.02-.13.03-.07.09-.12l1.09-1.1q.14-.14.25-.27t.18-.25q.07-.13.11-.25.04-.13.04-.27 0-.13-.04-.23-.03-.1-.1-.17t-.17-.1q-.09-.04-.21-.04-.11 0-.21.04-.09.03-.16.08-.08.06-.13.13-.05.08-.07.17-.04.12-.11.15-.07.04-.2.02l-.32-.06q.04-.26.14-.45.11-.2.27-.33t.37-.2.45-.07q.25 0 .46.08.21.07.35.21.15.13.23.32.09.19.09.42 0 .2-.06.38-.06.17-.16.32t-.23.3l-.28.3-.81.83q.11-.04.23-.06t.22-.02m2.52-2.48-.13.76q.12-.03.23-.04t.21-.01q.29 0 .51.08.21.09.36.24t.22.35q.08.2.08.43 0 .29-.1.53t-.28.41-.43.26-.54.09q-.17 0-.32-.03-.15-.04-.29-.1-.13-.06-.24-.13-.12-.08-.21-.17l.19-.26q.06-.08.16-.08.06 0 .13.04.06.04.15.09.08.04.19.08.12.04.28.04.17 0 .3-.05.13-.06.21-.16.09-.1.13-.23.05-.14.05-.3 0-.29-.17-.46-.17-.16-.51-.16-.26 0-.53.09l-.38-.11.3-1.76h1.78v.27q0 .13-.08.21t-.28.08z"/></svg>